# xmcd CD database file
#
# Track frame offsets:
#	150
#	14070
#	28655
#	50866
#	65580
#	80863
#	101856
#	113522
#	129847
#	141449
#
# Disc length: 2140 seconds
#
# Revision: 1
# Processed by: cddbd v1.5.1PL0 Copyright (c) Steve Scherf et al.
# Submitted via: CDex 1.51
#
DISCID=94085a0a
DTITLE=Jeremy Adkins - Greetings From Cripple Creek
DYEAR=2003
DGENRE=Country
TTITLE0=She's The One
TTITLE1=Weak
TTITLE2=The Grand Ol' Opry Dream
TTITLE3=Cripple Creek
TTITLE4=Before It's Too Late
TTITLE5=Alot Like Him
TTITLE6=Ain't Been Cheatin' On You
TTITLE7=Be Your Man
TTITLE8=Memories Of You
TTITLE9=Forever and a Day
EXTD=YEAR: 2003
EXTT0=
EXTT1=
EXTT2=
EXTT3=
EXTT4=
EXTT5=
EXTT6=
EXTT7=
EXTT8=
EXTT9=
PLAYORDER=
